<?xml version="1.0" standalone="no"?>
<!DOCTYPE svg PUBLIC "-//W3C//DTD SVG 20010904//EN"
 "http://www.w3.org/TR/2001/REC-SVG-20010904/DTD/svg10.dtd">
<svg version="1.0" xmlns="http://www.w3.org/2000/svg"
 width="1187.000000pt" height="246.000000pt" viewBox="0 0 1187.000000 246.000000"
 preserveAspectRatio="xMidYMid meet">

<g transform="translate(0.000000,246.000000) scale(0.100000,-0.100000)"
fill="#000000" stroke="none">
<path d="M10606 2450 c-552 -51 -965 -408 -1077 -930 -31 -140 -33 -420 -6
-550 55 -256 156 -450 323 -615 76 -75 195 -161 290 -208 80 -40 241 -93 344
-112 126 -25 359 -25 490 -1 484 88 803 404 884 879 l7 37 -300 0 -299 0 -17
-49 c-22 -68 -83 -159 -136 -205 -99 -85 -222 -126 -381 -126 -233 0 -418 119
-523 335 -60 123 -79 224 -72 374 10 202 64 337 182 457 113 114 240 164 415
164 233 -1 402 -96 490 -278 l35 -72 298 0 298 0 -7 38 c-70 386 -322 674
-699 800 -165 54 -366 77 -539 62z"/>
<path d="M10 1225 l0 -1215 310 0 310 0 0 390 0 390 229 0 228 0 122 263 c67
144 121 265 121 270 0 4 -157 7 -350 7 l-350 0 0 265 0 265 560 0 560 0 0 290
0 290 -870 0 -870 0 0 -1215z"/>
<path d="M2437 2433 c-23 -38 -1066 -2316 -1104 -2410 -4 -10 62 -13 308 -13
l314 1 302 722 c166 397 305 721 309 720 8 -1 269 -609 280 -650 l6 -23 -165
0 -165 0 -17 -48 c-60 -173 -125 -366 -125 -373 0 -5 149 -10 332 -11 l331 -3
71 -168 70 -167 313 0 c172 0 313 1 313 3 0 2 -243 547 -539 1212 l-539 1210
-145 3 c-80 1 -148 -1 -150 -5z"/>
<path d="M3910 1498 l0 -903 132 -292 131 -293 629 0 628 0 0 270 0 270 -460
0 -460 0 0 215 0 215 410 0 410 0 0 270 0 270 -410 0 -410 0 0 170 0 170 445
0 445 0 0 270 0 270 -745 0 -745 0 0 -902z"/>
<path d="M5720 2130 l0 -270 290 0 290 0 0 -925 0 -925 305 0 305 0 0 925 0
925 270 0 270 0 0 270 0 270 -865 0 -865 0 0 -270z"/>
<path d="M7760 1506 l0 -894 135 -299 134 -298 631 -3 630 -2 0 270 0 270
-460 0 -460 0 0 215 0 215 405 0 405 0 0 270 0 270 -405 0 -405 0 0 170 0 170
445 0 445 0 0 270 0 270 -750 0 -750 0 0 -894z"/>
</g>
</svg>
