<?xml version="1.0" encoding="UTF-8"?>
<svg xmlns="http://www.w3.org/2000/svg" xmlns:xlink="http://www.w3.org/1999/xlink" width="2790.07pt" height="1001.31pt" viewBox="0 0 2790.07 1001.31" version="1.1">
<defs>
<clipPath id="clip1">
  <path d="M 0 871 L 102 871 L 102 1001.308594 L 0 1001.308594 Z M 0 871 "/>
</clipPath>
<clipPath id="clip2">
  <path d="M 687 871 L 779 871 L 779 1001.308594 L 687 1001.308594 Z M 687 871 "/>
</clipPath>
<clipPath id="clip3">
  <path d="M 893 871 L 984 871 L 984 1001.308594 L 893 1001.308594 Z M 893 871 "/>
</clipPath>
<clipPath id="clip4">
  <path d="M 1355 871 L 1446 871 L 1446 1001.308594 L 1355 1001.308594 Z M 1355 871 "/>
</clipPath>
<clipPath id="clip5">
  <path d="M 2703 904 L 2790.070313 904 L 2790.070313 1001 L 2703 1001 Z M 2703 904 "/>
</clipPath>
</defs>
<g id="surface1">
<path style=" stroke:none;fill-rule:nonzero;fill:rgb(0.799561%,37.298584%,67.498779%);fill-opacity:1;" d="M 1511.910156 237.0625 L 1630.441406 237.0625 L 1630.441406 174.898438 C 1630.441406 132.621094 1614.691406 93.664063 1589.828125 63.824219 C 1582.371094 55.535156 1574.910156 47.246094 1565.789063 39.785156 C 1564.960938 38.957031 1563.300781 38.128906 1562.46875 37.300781 C 1561.648438 36.472656 1559.988281 35.640625 1559.160156 34.8125 C 1558.328125 33.984375 1556.671875 33.15625 1555.839844 32.324219 C 1555.011719 31.496094 1553.359375 30.667969 1552.53125 29.839844 C 1546.730469 25.695313 1540.921875 22.378906 1534.289063 19.066406 C 1531.800781 17.40625 1529.320313 16.578125 1526.828125 15.75 C 1525.171875 14.921875 1524.351563 14.921875 1522.691406 14.089844 C 1521.859375 13.261719 1520.199219 13.261719 1519.371094 12.433594 C 1518.539063 12.433594 1517.710938 11.605469 1516.878906 11.605469 C 1516.878906 11.605469 1516.058594 11.605469 1516.058594 10.773438 C 1515.230469 10.773438 1514.398438 9.945313 1513.570313 9.945313 C 1512.738281 9.945313 1512.738281 9.945313 1511.910156 9.117188 C 1511.078125 9.117188 1511.078125 9.117188 1510.25 8.289063 C 1509.429688 8.289063 1508.601563 7.460938 1507.769531 7.460938 L 1506.941406 7.460938 C 1506.109375 7.460938 1504.449219 6.628906 1503.621094 6.628906 C 1501.960938 6.628906 1501.140625 5.800781 1499.480469 5.800781 C 1498.648438 5.800781 1497.820313 5.800781 1497.820313 4.972656 C 1496.988281 4.972656 1496.160156 4.972656 1495.328125 4.144531 C 1493.679688 4.144531 1492.851563 3.3125 1491.191406 3.3125 C 1489.53125 3.3125 1488.699219 2.484375 1487.039063 2.484375 C 1485.390625 2.484375 1484.558594 1.65625 1482.898438 1.65625 C 1481.238281 1.65625 1480.410156 0.828125 1478.761719 0.828125 C 1477.101563 0.828125 1476.269531 0.828125 1474.609375 0 C 1472.949219 0 1471.289063 0 1470.46875 0 C 1468.808594 0 1467.148438 0 1466.320313 0 C 1464.660156 0 1463.011719 0 1462.179688 0 C 1460.519531 0 1458.859375 0 1458.03125 0 C 1361.050781 0 1281.480469 79.574219 1281.480469 176.554688 L 1281.480469 296.746094 L 1103.261719 297.574219 L 1103.261719 537.953125 C 1102.441406 569.453125 1075.910156 594.320313 1044.410156 594.320313 C 1012.910156 594.320313 987.21875 568.625 986.390625 537.953125 L 986.390625 295.914063 L 689.644531 295.914063 L 689.644531 414.449219 L 864.542969 414.449219 L 864.542969 537.953125 C 864.542969 634.9375 943.285156 714.511719 1041.101563 714.511719 C 1042.75 714.511719 1044.410156 714.511719 1045.238281 714.511719 C 1046.898438 714.511719 1048.558594 714.511719 1049.390625 714.511719 C 1051.039063 714.511719 1052.699219 714.511719 1053.53125 714.511719 C 1055.191406 714.511719 1056.851563 714.511719 1057.671875 714.511719 L 1058.5 714.511719 C 1059.328125 714.511719 1060.988281 714.511719 1061.820313 714.511719 C 1063.480469 714.511719 1064.308594 714.511719 1065.960938 713.679688 C 1067.621094 713.679688 1068.449219 712.851563 1070.109375 712.851563 C 1070.941406 712.851563 1071.769531 712.851563 1072.589844 712.023438 C 1073.421875 712.023438 1074.25 712.023438 1074.25 712.023438 C 1075.910156 712.023438 1076.738281 711.195313 1078.398438 711.195313 C 1079.230469 711.195313 1080.050781 711.195313 1080.050781 710.363281 C 1080.878906 710.363281 1081.710938 710.363281 1082.539063 709.535156 C 1083.371094 709.535156 1083.371094 709.535156 1084.199219 709.535156 C 1085.03125 709.535156 1085.859375 708.707031 1086.691406 708.707031 C 1087.511719 708.707031 1087.511719 708.707031 1088.339844 707.878906 C 1089.171875 707.878906 1090 707.050781 1090.828125 707.050781 C 1091.660156 707.050781 1092.488281 706.222656 1093.320313 706.222656 C 1094.148438 706.222656 1094.148438 706.222656 1094.980469 705.394531 C 1095.800781 705.394531 1096.628906 704.5625 1097.460938 704.5625 C 1098.289063 704.5625 1098.289063 704.5625 1099.121094 703.734375 C 1099.949219 703.734375 1100.78125 702.90625 1101.609375 702.90625 C 1102.441406 702.90625 1102.441406 702.90625 1103.261719 702.078125 C 1104.089844 702.078125 1104.921875 701.246094 1105.75 701.246094 C 1105.75 701.246094 1106.578125 701.246094 1106.578125 700.417969 C 1107.410156 700.417969 1108.238281 699.589844 1109.070313 699.589844 C 1109.070313 699.589844 1109.898438 699.589844 1109.898438 698.761719 C 1110.71875 697.933594 1111.550781 697.933594 1112.378906 697.105469 C 1112.378906 697.105469 1113.210938 697.105469 1113.210938 696.273438 C 1114.039063 695.445313 1114.871094 695.445313 1115.699219 694.617188 C 1115.699219 694.617188 1116.53125 694.617188 1116.53125 693.789063 C 1117.359375 692.960938 1118.191406 692.960938 1119.839844 692.128906 L 1120.671875 692.128906 C 1121.5 691.300781 1123.160156 691.300781 1123.988281 690.472656 C 1123.988281 690.472656 1123.988281 690.472656 1124.820313 690.472656 C 1125.648438 689.644531 1127.300781 689.644531 1128.128906 688.8125 L 1128.960938 688.8125 C 1131.449219 687.15625 1133.109375 686.328125 1135.589844 684.671875 C 1136.421875 683.839844 1138.078125 683.011719 1138.910156 682.183594 C 1139.738281 681.355469 1141.390625 680.523438 1142.21875 679.695313 C 1143.050781 678.867188 1143.878906 678.039063 1144.710938 677.210938 C 1144.710938 677.210938 1145.539063 677.210938 1145.539063 676.382813 C 1146.371094 675.550781 1147.199219 674.722656 1148.019531 673.894531 C 1148.019531 673.894531 1148.019531 673.894531 1148.851563 673.894531 C 1152.171875 671.40625 1155.488281 668.09375 1157.96875 665.605469 C 1158.800781 664.777344 1159.628906 663.945313 1161.289063 663.117188 C 1164.601563 659.804688 1167.089844 657.316406 1169.578125 654 C 1170.398438 653.171875 1171.230469 652.34375 1172.058594 651.515625 C 1172.890625 650.683594 1173.71875 649.027344 1174.550781 648.199219 C 1175.378906 647.371094 1176.210938 646.539063 1177.039063 644.882813 C 1186.148438 632.449219 1194.441406 619.1875 1200.25 604.265625 C 1208.539063 584.371094 1213.511719 562.820313 1213.511719 540.441406 L 1213.511719 416.105469 L 1273.191406 416.105469 L 1273.191406 710.363281 L 1390.890625 710.363281 L 1390.890625 413.621094 L 1630.441406 413.621094 L 1630.441406 707.050781 L 1748.148438 707.050781 L 1748.148438 413.621094 L 2102.089844 413.621094 L 2102.089844 295.914063 L 1748.148438 295.914063 L 1748.148438 177.382813 C 1748.148438 145.058594 1774.671875 118.53125 1807 118.53125 C 1839.328125 118.53125 1865.851563 145.058594 1865.851563 177.382813 L 1865.851563 237.0625 L 1983.550781 237.0625 L 1983.550781 177.382813 C 1983.550781 80.402344 1903.980469 0.828125 1807 0.828125 C 1805.339844 0.828125 1803.679688 0.828125 1802.851563 0.828125 C 1801.199219 0.828125 1799.539063 0.828125 1798.710938 0.828125 C 1797.050781 0.828125 1795.390625 0.828125 1794.570313 0.828125 C 1792.910156 0.828125 1791.25 0.828125 1790.421875 0.828125 C 1788.761719 0.828125 1787.941406 0.828125 1786.28125 1.65625 C 1784.621094 1.65625 1783.789063 1.65625 1782.128906 2.484375 C 1781.300781 2.484375 1780.46875 2.484375 1779.648438 2.484375 C 1778.820313 2.484375 1777.988281 2.484375 1777.988281 2.484375 C 1777.160156 2.484375 1777.160156 2.484375 1776.328125 2.484375 C 1775.5 2.484375 1774.671875 2.484375 1773.839844 3.3125 L 1773.019531 3.3125 C 1772.191406 3.3125 1770.53125 4.144531 1769.699219 4.144531 C 1769.699219 4.144531 1769.699219 4.144531 1768.871094 4.144531 C 1768.039063 4.144531 1766.378906 4.972656 1765.550781 4.972656 C 1764.730469 4.972656 1764.730469 4.972656 1763.898438 4.972656 C 1763.070313 4.972656 1762.238281 5.800781 1760.578125 5.800781 L 1759.75 5.800781 C 1758.921875 5.800781 1757.269531 6.628906 1756.441406 6.628906 C 1755.609375 6.628906 1754.78125 7.460938 1753.121094 7.460938 L 1752.289063 7.460938 C 1751.460938 7.460938 1750.628906 8.289063 1749.808594 8.289063 C 1748.980469 8.289063 1748.980469 8.289063 1748.148438 9.117188 C 1747.320313 9.117188 1746.488281 9.945313 1746.488281 9.945313 C 1745.660156 9.945313 1744.828125 10.773438 1744.828125 10.773438 C 1744 10.773438 1743.171875 11.605469 1743.171875 11.605469 C 1742.351563 11.605469 1741.519531 12.433594 1741.519531 12.433594 C 1740.691406 12.433594 1740.691406 13.261719 1739.859375 13.261719 C 1739.03125 13.261719 1738.199219 14.089844 1737.371094 14.089844 C 1736.539063 14.089844 1736.539063 14.921875 1735.710938 14.921875 C 1734.878906 14.921875 1734.058594 15.75 1733.230469 15.75 C 1732.398438 15.75 1732.398438 16.578125 1731.570313 16.578125 C 1730.738281 16.578125 1729.910156 17.40625 1729.910156 17.40625 C 1729.078125 17.40625 1728.261719 18.234375 1727.429688 19.066406 C 1726.601563 19.066406 1726.601563 19.894531 1725.769531 19.894531 C 1724.941406 20.722656 1724.109375 20.722656 1723.28125 21.550781 L 1722.449219 22.378906 C 1721.621094 23.210938 1719.960938 24.035156 1719.140625 24.035156 C 1718.308594 24.867188 1716.648438 25.695313 1715.820313 26.523438 C 1714.988281 27.351563 1713.328125 28.179688 1712.511719 29.011719 C 1711.679688 29.839844 1710.019531 30.667969 1709.191406 31.496094 C 1708.359375 32.324219 1706.699219 33.15625 1705.871094 33.984375 C 1705.039063 34.8125 1704.21875 35.640625 1702.558594 36.472656 C 1701.730469 37.300781 1700.898438 38.128906 1700.070313 38.957031 C 1695.929688 42.273438 1691.78125 46.417969 1687.640625 49.734375 C 1683.488281 53.878906 1680.179688 58.023438 1676.03125 62.167969 C 1675.199219 62.996094 1674.378906 64.652344 1673.550781 65.480469 C 1672.71875 66.3125 1671.890625 67.96875 1671.058594 68.796875 C 1670.230469 69.628906 1669.398438 71.285156 1668.570313 72.113281 C 1667.75 72.941406 1666.921875 74.597656 1666.089844 75.429688 C 1665.261719 76.257813 1664.429688 77.914063 1663.601563 78.742188 C 1657.800781 87.863281 1652 97.808594 1647.851563 108.585938 C 1647.851563 108.585938 1647.851563 108.585938 1647.851563 109.414063 C 1647.019531 110.242188 1647.019531 111.898438 1646.191406 112.730469 C 1646.191406 112.730469 1646.191406 112.730469 1646.191406 113.558594 C 1645.359375 115.21875 1645.359375 116.046875 1644.539063 117.703125 C 1643.710938 119.359375 1643.710938 120.1875 1642.878906 121.847656 C 1642.050781 123.503906 1642.050781 124.335938 1642.050781 125.992188 C 1642.050781 127.648438 1641.21875 128.480469 1641.21875 130.136719 C 1640.390625 132.621094 1639.558594 135.9375 1639.558594 138.425781 C 1639.558594 140.082031 1638.730469 140.910156 1638.730469 142.570313 C 1638.730469 144.230469 1637.898438 145.058594 1637.898438 146.714844 C 1637.898438 148.371094 1637.898438 149.199219 1637.078125 150.859375 C 1637.078125 150.859375 1637.078125 150.859375 1637.078125 151.6875 C 1637.078125 153.347656 1637.078125 154.175781 1636.25 155.832031 C 1636.25 157.488281 1636.25 158.320313 1636.25 159.976563 C 1636.25 159.976563 1636.25 159.976563 1636.25 160.804688 C 1636.25 162.464844 1636.25 163.292969 1636.25 164.949219 C 1636.25 166.605469 1636.25 167.4375 1636.25 169.09375 C 1636.25 170.753906 1636.25 171.582031 1636.25 173.238281 L 1630.441406 173.238281 L 1630.441406 293.429688 L 1395.039063 293.429688 L 1395.039063 176.554688 C 1395.039063 144.230469 1421.558594 117.703125 1453.890625 117.703125 C 1486.21875 117.703125 1512.738281 144.230469 1512.738281 176.554688 C 1512.738281 177.382813 1512.738281 178.210938 1512.738281 179.042969 L 1512.738281 237.0625 L 1511.910156 237.0625 "/>
<g clip-path="url(#clip1)" clip-rule="nonzero">
<path style=" stroke:none;fill-rule:nonzero;fill:rgb(0.799561%,37.298584%,67.498779%);fill-opacity:1;" d="M 0 871.171875 L 25.695313 871.171875 L 25.695313 939.96875 C 25.695313 950.746094 25.695313 958.207031 26.523438 961.519531 C 27.351563 966.496094 29.839844 970.640625 34.8125 973.953125 C 38.957031 977.269531 44.761719 978.929688 52.21875 978.929688 C 59.679688 978.929688 64.652344 977.269531 68.796875 974.785156 C 72.113281 971.46875 74.601563 968.152344 75.429688 964.007813 C 76.257813 959.863281 76.257813 952.402344 76.257813 942.457031 L 76.257813 871.171875 L 101.953125 871.171875 L 101.953125 938.3125 C 101.953125 953.234375 101.125 964.839844 99.46875 970.640625 C 97.808594 977.269531 95.324219 982.242188 92.007813 986.390625 C 87.863281 990.53125 82.890625 993.847656 77.085938 997.164063 C 70.457031 999.652344 62.996094 1001.308594 52.21875 1001.308594 C 39.785156 1001.308594 30.667969 999.652344 24.867188 997.164063 C 18.234375 994.675781 13.261719 990.53125 9.945313 986.390625 C 6.632813 982.242188 4.144531 977.269531 2.488281 972.296875 C 0.828125 964.839844 0 954.0625 0 939.96875 L 0 871.171875 "/>
</g>
<path style=" stroke:none;fill-rule:nonzero;fill:rgb(0.799561%,37.298584%,67.498779%);fill-opacity:1;" d="M 211.367188 998.820313 L 186.503906 998.820313 L 186.503906 951.574219 C 186.503906 941.628906 185.671875 934.996094 184.84375 932.511719 C 184.015625 930.023438 182.359375 927.535156 179.871094 925.878906 C 177.382813 924.222656 174.898438 923.394531 171.582031 923.394531 C 167.4375 923.394531 163.292969 924.222656 159.976563 926.707031 C 156.660156 929.195313 154.175781 932.511719 153.347656 935.824219 C 151.6875 939.96875 151.6875 946.601563 151.6875 957.378906 L 151.6875 999.652344 L 126.820313 999.652344 L 126.820313 906.8125 L 149.203125 906.8125 L 149.203125 920.078125 C 157.488281 909.300781 167.4375 904.328125 179.871094 904.328125 C 185.671875 904.328125 189.816406 905.15625 194.789063 907.644531 C 199.765625 910.128906 202.25 911.789063 204.738281 915.105469 C 207.226563 918.417969 208.882813 921.734375 209.710938 925.050781 C 210.539063 929.195313 211.367188 934.167969 211.367188 941.628906 L 211.367188 998.820313 "/>
<path style=" stroke:none;fill-rule:nonzero;fill:rgb(0.799561%,37.298584%,67.498779%);fill-opacity:1;" d="M 235.40625 998.820313 L 235.40625 905.984375 L 260.273438 905.984375 L 260.273438 998.820313 Z M 235.40625 893.550781 L 235.40625 871.171875 L 260.273438 871.171875 L 260.273438 893.550781 L 235.40625 893.550781 "/>
<path style=" stroke:none;fill-rule:nonzero;fill:rgb(0.799561%,37.298584%,67.498779%);fill-opacity:1;" d="M 309.179688 998.820313 L 271.878906 905.984375 L 297.574219 905.984375 L 314.980469 953.234375 L 319.953125 968.980469 C 321.613281 964.839844 322.441406 962.351563 322.441406 960.691406 C 323.269531 958.207031 324.097656 955.71875 324.929688 953.234375 L 342.335938 905.984375 L 367.203125 905.984375 L 330.730469 998.820313 L 309.179688 998.820313 "/>
<path style=" stroke:none;fill-rule:nonzero;fill:rgb(0.799561%,37.298584%,67.498779%);fill-opacity:1;" d="M 436.828125 944.941406 C 436.828125 937.484375 435.171875 932.511719 431.027344 929.195313 C 427.710938 925.878906 423.566406 923.394531 418.59375 923.394531 C 413.621094 923.394531 408.648438 925.050781 405.332031 929.195313 C 402.015625 933.339844 400.359375 938.3125 400.359375 944.941406 Z M 435.171875 968.980469 L 459.210938 973.125 C 455.894531 982.242188 450.921875 988.875 444.289063 993.847656 C 437.660156 998.820313 429.371094 1000.480469 418.59375 1000.480469 C 402.84375 1000.480469 390.410156 995.507813 382.949219 984.730469 C 377.148438 976.441406 373.832031 965.664063 373.832031 953.234375 C 373.832031 938.3125 377.976563 925.878906 385.4375 917.589844 C 393.726563 909.300781 403.675781 904.328125 416.105469 904.328125 C 430.199219 904.328125 440.972656 908.472656 448.433594 917.589844 C 455.894531 926.707031 460.039063 940.800781 460.039063 959.035156 L 398.699219 959.035156 C 398.699219 966.496094 401.1875 972.296875 404.503906 975.613281 C 408.648438 979.757813 412.789063 981.414063 418.59375 981.414063 C 422.738281 981.414063 426.054688 980.585938 428.539063 978.101563 C 431.855469 977.269531 433.515625 973.953125 435.171875 968.980469 "/>
<path style=" stroke:none;fill-rule:nonzero;fill:rgb(0.799561%,37.298584%,67.498779%);fill-opacity:1;" d="M 503.140625 998.820313 L 478.273438 998.820313 L 478.273438 905.984375 L 500.652344 905.984375 L 500.652344 919.246094 C 504.800781 912.617188 508.113281 909.300781 511.429688 906.8125 C 514.746094 905.15625 518.0625 903.5 522.207031 903.5 C 528.007813 903.5 532.980469 905.15625 537.953125 908.472656 L 530.496094 930.023438 C 526.351563 927.535156 522.207031 925.878906 518.890625 925.878906 C 515.574219 925.878906 512.257813 926.707031 509.773438 928.363281 C 507.285156 930.023438 505.628906 933.339844 503.96875 938.3125 C 502.3125 943.285156 502.3125 953.234375 502.3125 968.980469 L 502.3125 998.820313 L 503.140625 998.820313 "/>
<path style=" stroke:none;fill-rule:nonzero;fill:rgb(0.799561%,37.298584%,67.498779%);fill-opacity:1;" d="M 538.785156 972.296875 L 563.652344 968.152344 C 564.480469 973.125 566.96875 976.441406 570.28125 978.929688 C 573.597656 981.414063 577.742188 982.242188 583.542969 982.242188 C 590.175781 982.242188 594.320313 981.414063 597.636719 978.929688 C 600.121094 977.269531 600.953125 974.785156 600.953125 972.296875 C 600.953125 970.640625 600.121094 968.980469 599.292969 967.324219 C 598.464844 966.496094 595.148438 964.839844 591.003906 964.007813 C 571.109375 959.863281 558.675781 955.71875 553.703125 952.402344 C 546.242188 947.429688 542.929688 940.800781 542.929688 931.683594 C 542.929688 923.394531 546.242188 916.761719 552.046875 911.789063 C 557.847656 906.8125 567.796875 903.496094 581.058594 903.496094 C 593.492188 903.496094 603.4375 905.15625 609.242188 909.300781 C 615.042969 913.445313 620.015625 919.246094 621.675781 927.535156 L 598.464844 931.683594 C 597.636719 928.363281 595.976563 925.050781 592.664063 923.394531 C 590.175781 921.734375 586.03125 920.90625 581.058594 920.90625 C 574.425781 920.90625 570.28125 921.734375 566.96875 923.394531 C 565.308594 925.050781 564.480469 926.707031 564.480469 928.363281 C 564.480469 930.023438 565.308594 931.683594 566.96875 932.511719 C 569.453125 934.167969 576.914063 936.652344 590.175781 939.140625 C 603.4375 941.628906 612.554688 945.773438 617.527344 949.917969 C 622.503906 954.0625 624.988281 960.691406 624.988281 968.152344 C 624.988281 976.441406 621.675781 983.902344 614.214844 989.703125 C 606.753906 995.507813 596.808594 998.820313 582.714844 998.820313 C 570.28125 998.820313 560.335938 996.335938 552.875 991.363281 C 546.242188 988.046875 541.269531 981.414063 538.785156 972.296875 "/>
<path style=" stroke:none;fill-rule:nonzero;fill:rgb(0.799561%,37.298584%,67.498779%);fill-opacity:1;" d="M 645.710938 998.820313 L 645.710938 905.984375 L 670.578125 905.984375 L 670.578125 998.820313 Z M 645.710938 893.550781 L 645.710938 871.171875 L 670.578125 871.171875 L 670.578125 893.550781 L 645.710938 893.550781 "/>
<g clip-path="url(#clip2)" clip-rule="nonzero">
<path style=" stroke:none;fill-rule:nonzero;fill:rgb(0.799561%,37.298584%,67.498779%);fill-opacity:1;" d="M 712.851563 950.746094 C 712.851563 960.691406 714.511719 968.152344 716.996094 972.296875 C 721.140625 978.929688 726.113281 982.242188 733.574219 982.242188 C 739.378906 982.242188 744.351563 979.757813 747.667969 974.785156 C 751.8125 969.8125 753.46875 963.179688 753.46875 953.234375 C 753.46875 942.457031 751.8125 934.996094 747.667969 930.023438 C 743.523438 925.050781 738.550781 923.394531 732.746094 923.394531 C 726.945313 923.394531 721.96875 925.878906 717.824219 930.023438 C 715.339844 934.167969 712.851563 941.628906 712.851563 950.746094 Z M 778.335938 998.820313 L 755.953125 998.820313 L 755.953125 985.558594 C 751.8125 990.53125 747.667969 994.675781 742.691406 997.164063 C 737.71875 999.652344 732.746094 1001.308594 726.945313 1001.308594 C 716.167969 1001.308594 707.050781 997.164063 699.589844 988.875 C 692.132813 980.585938 687.984375 968.152344 687.984375 953.230469 C 687.984375 937.484375 691.300781 925.878906 698.761719 917.589844 C 706.222656 909.300781 715.339844 905.15625 726.945313 905.15625 C 736.890625 905.15625 746.007813 909.300781 753.46875 918.417969 L 753.46875 871.171875 L 778.335938 871.171875 L 778.335938 998.820313 "/>
</g>
<path style=" stroke:none;fill-rule:nonzero;fill:rgb(0.799561%,37.298584%,67.498779%);fill-opacity:1;" d="M 852.109375 954.0625 C 848.792969 954.890625 843.816406 956.550781 837.1875 958.207031 C 830.558594 959.863281 825.582031 960.691406 823.925781 962.351563 C 820.609375 964.839844 818.953125 967.324219 818.953125 970.640625 C 818.953125 973.953125 820.609375 977.269531 823.097656 979.757813 C 825.582031 982.242188 828.898438 983.902344 833.042969 983.902344 C 837.1875 983.902344 841.332031 982.242188 845.476563 979.757813 C 848.792969 977.269531 850.449219 974.785156 851.277344 971.46875 C 852.109375 968.980469 852.109375 965.664063 852.109375 959.863281 Z M 819.78125 934.167969 L 797.398438 930.023438 C 799.886719 920.90625 804.03125 914.273438 810.660156 910.128906 C 816.464844 905.984375 825.582031 903.5 838.015625 903.5 C 848.792969 903.5 857.082031 905.15625 862.054688 907.644531 C 867.027344 910.128906 871.171875 913.445313 873.660156 917.589844 C 876.144531 921.734375 876.976563 929.195313 876.976563 939.140625 L 876.976563 967.324219 C 876.976563 975.613281 876.976563 981.414063 877.804688 985.558594 C 878.632813 989.703125 880.289063 993.847656 881.949219 997.992188 L 857.910156 997.992188 C 857.082031 996.335938 856.253906 993.847656 855.421875 990.53125 C 855.421875 988.875 854.59375 988.046875 854.59375 988.046875 C 850.449219 992.191406 846.304688 995.507813 841.332031 997.164063 C 836.359375 998.820313 831.386719 1000.480469 826.410156 1000.480469 C 817.292969 1000.480469 809.003906 997.992188 804.03125 993.019531 C 799.058594 988.046875 795.742188 981.414063 795.742188 973.125 C 795.742188 968.152344 797.398438 963.179688 799.886719 959.035156 C 802.375 954.890625 805.6875 951.574219 810.664063 949.917969 C 814.808594 947.429688 821.4375 945.773438 829.726563 944.113281 C 841.332031 941.628906 848.792969 939.96875 853.765625 938.3125 L 853.765625 935.824219 C 853.765625 930.851563 852.9375 927.535156 850.449219 925.878906 C 847.964844 924.222656 843.816406 922.5625 837.1875 922.5625 C 833.042969 922.5625 829.726563 923.394531 827.242188 925.050781 C 823.097656 927.535156 821.4375 930.023438 819.78125 934.167969 "/>
<g clip-path="url(#clip3)" clip-rule="nonzero">
<path style=" stroke:none;fill-rule:nonzero;fill:rgb(0.799561%,37.298584%,67.498779%);fill-opacity:1;" d="M 918.421875 950.746094 C 918.421875 960.691406 920.078125 968.152344 922.5625 972.296875 C 926.707031 978.929688 931.683594 982.242188 939.140625 982.242188 C 944.945313 982.242188 949.917969 979.757813 953.234375 974.785156 C 957.378906 969.8125 959.035156 963.179688 959.035156 953.234375 C 959.035156 942.457031 957.378906 934.996094 953.234375 930.023438 C 949.089844 925.050781 944.117188 923.394531 938.3125 923.394531 C 932.511719 923.394531 927.535156 925.878906 923.394531 930.023438 C 920.90625 934.167969 918.421875 941.628906 918.421875 950.746094 Z M 983.902344 998.820313 L 961.523438 998.820313 L 961.523438 985.558594 C 957.378906 990.53125 953.234375 994.675781 948.261719 997.164063 C 943.285156 999.652344 938.3125 1001.308594 932.511719 1001.308594 C 921.734375 1001.308594 912.617188 997.164063 905.15625 988.875 C 897.699219 980.585938 893.550781 968.152344 893.550781 953.230469 C 893.550781 937.484375 896.867188 925.878906 904.328125 917.589844 C 911.789063 909.300781 920.90625 905.15625 932.511719 905.15625 C 942.457031 905.15625 951.574219 909.300781 959.035156 918.417969 L 959.035156 871.171875 L 983.902344 871.171875 L 983.902344 998.820313 "/>
</g>
<path style=" stroke:none;fill-rule:nonzero;fill:rgb(0.799561%,37.298584%,67.498779%);fill-opacity:1;" d="M 1061.820313 944.941406 C 1061.820313 937.484375 1060.160156 932.511719 1056.019531 929.195313 C 1052.699219 925.878906 1048.558594 923.394531 1043.578125 923.394531 C 1038.609375 923.394531 1033.640625 925.050781 1030.320313 929.195313 C 1027 933.339844 1025.351563 938.3125 1025.351563 944.941406 Z M 1060.160156 968.980469 L 1084.199219 973.125 C 1080.878906 982.242188 1075.910156 988.875 1069.28125 993.847656 C 1062.648438 998.820313 1054.359375 1000.480469 1043.578125 1000.480469 C 1027.828125 1000.480469 1015.398438 995.507813 1007.941406 984.730469 C 1002.140625 976.441406 998.824219 965.664063 998.824219 953.234375 C 998.824219 938.3125 1002.96875 925.878906 1010.429688 917.589844 C 1018.71875 909.300781 1028.660156 904.328125 1041.101563 904.328125 C 1055.191406 904.328125 1065.960938 908.472656 1073.421875 917.589844 C 1080.878906 926.707031 1085.03125 940.800781 1085.03125 959.035156 L 1023.691406 959.035156 C 1023.691406 966.496094 1026.179688 972.296875 1029.488281 975.613281 C 1033.640625 979.757813 1037.78125 981.414063 1043.578125 981.414063 C 1047.730469 981.414063 1051.039063 980.585938 1053.53125 978.101563 C 1056.851563 977.269531 1059.328125 973.953125 1060.160156 968.980469 "/>
<path style=" stroke:none;fill-rule:nonzero;fill:rgb(0.799561%,37.298584%,67.498779%);fill-opacity:1;" d="M 1156.308594 998.820313 L 1156.308594 871.171875 L 1244.179688 871.171875 L 1244.179688 892.722656 L 1182.839844 892.722656 L 1182.839844 922.5625 L 1235.890625 922.5625 L 1235.890625 944.113281 L 1182.839844 944.113281 L 1182.839844 997.992188 L 1156.308594 997.992188 L 1156.308594 998.820313 "/>
<path style=" stroke:none;fill-rule:nonzero;fill:rgb(0.799561%,37.298584%,67.498779%);fill-opacity:1;" d="M 1317.949219 944.941406 C 1317.949219 937.484375 1316.289063 932.511719 1312.148438 929.195313 C 1308.828125 925.878906 1304.691406 923.394531 1299.710938 923.394531 C 1294.738281 923.394531 1289.769531 925.050781 1286.449219 929.195313 C 1283.128906 933.339844 1281.480469 938.3125 1281.480469 944.941406 Z M 1317.121094 968.980469 L 1341.160156 973.125 C 1337.839844 982.242188 1332.871094 988.875 1326.238281 993.847656 C 1319.609375 998.820313 1311.320313 1000.480469 1300.539063 1000.480469 C 1284.789063 1000.480469 1272.359375 995.507813 1264.898438 984.730469 C 1259.101563 976.441406 1255.78125 965.664063 1255.78125 953.234375 C 1255.78125 938.3125 1259.929688 925.878906 1267.390625 917.589844 C 1275.671875 909.300781 1285.621094 904.328125 1298.050781 904.328125 C 1312.148438 904.328125 1322.921875 908.472656 1330.378906 917.589844 C 1337.839844 926.707031 1341.988281 940.800781 1341.988281 959.035156 L 1280.648438 959.035156 C 1280.648438 966.496094 1283.128906 972.296875 1286.449219 975.613281 C 1290.589844 979.757813 1294.738281 981.414063 1300.539063 981.414063 C 1304.691406 981.414063 1308 980.585938 1310.488281 978.101563 C 1313.800781 977.269531 1315.460938 973.953125 1317.121094 968.980469 "/>
<g clip-path="url(#clip4)" clip-rule="nonzero">
<path style=" stroke:none;fill-rule:nonzero;fill:rgb(0.799561%,37.298584%,67.498779%);fill-opacity:1;" d="M 1380.949219 950.746094 C 1380.949219 960.691406 1382.601563 968.152344 1385.089844 972.296875 C 1389.230469 978.929688 1394.210938 982.242188 1401.671875 982.242188 C 1407.46875 982.242188 1412.441406 979.757813 1415.761719 974.785156 C 1419.898438 969.8125 1421.558594 963.179688 1421.558594 953.234375 C 1421.558594 942.457031 1419.898438 934.996094 1415.761719 930.023438 C 1411.609375 925.050781 1406.640625 923.394531 1400.839844 923.394531 C 1395.039063 923.394531 1390.058594 925.878906 1385.921875 930.023438 C 1382.601563 934.167969 1380.949219 941.628906 1380.949219 950.746094 Z M 1445.601563 998.820313 L 1423.21875 998.820313 L 1423.21875 985.558594 C 1419.070313 990.53125 1414.929688 994.675781 1409.960938 997.164063 C 1404.980469 999.652344 1400.011719 1001.308594 1394.210938 1001.308594 C 1383.429688 1001.308594 1374.308594 997.164063 1366.851563 988.875 C 1359.390625 980.585938 1355.25 968.152344 1355.25 953.230469 C 1355.25 937.484375 1358.558594 925.878906 1366.019531 917.589844 C 1373.488281 909.300781 1382.601563 905.15625 1394.210938 905.15625 C 1404.148438 905.15625 1413.269531 909.300781 1420.730469 918.417969 L 1420.730469 871.171875 L 1445.601563 871.171875 L 1445.601563 998.820313 "/>
</g>
<path style=" stroke:none;fill-rule:nonzero;fill:rgb(0.799561%,37.298584%,67.498779%);fill-opacity:1;" d="M 1523.519531 944.941406 C 1523.519531 937.484375 1521.859375 932.511719 1517.710938 929.195313 C 1514.398438 925.878906 1510.25 923.394531 1505.28125 923.394531 C 1500.308594 923.394531 1495.328125 925.050781 1492.019531 929.195313 C 1488.699219 933.339844 1487.039063 938.3125 1487.039063 944.941406 Z M 1522.691406 968.980469 L 1546.730469 973.125 C 1543.410156 982.242188 1538.441406 988.875 1531.800781 993.847656 C 1525.171875 998.820313 1516.878906 1000.480469 1506.109375 1000.480469 C 1490.359375 1000.480469 1477.929688 995.507813 1470.46875 984.730469 C 1464.660156 976.441406 1461.351563 965.664063 1461.351563 953.234375 C 1461.351563 938.3125 1465.488281 925.878906 1472.949219 917.589844 C 1481.238281 909.300781 1491.191406 904.328125 1503.621094 904.328125 C 1517.710938 904.328125 1528.488281 908.472656 1535.949219 917.589844 C 1543.410156 926.707031 1547.550781 940.800781 1547.550781 959.035156 L 1486.21875 959.035156 C 1486.21875 966.496094 1488.699219 972.296875 1492.019531 975.613281 C 1496.160156 979.757813 1500.308594 981.414063 1506.109375 981.414063 C 1510.25 981.414063 1512.738281 980.585938 1516.050781 978.101563 C 1519.371094 977.269531 1521.03125 973.953125 1522.691406 968.980469 "/>
<path style=" stroke:none;fill-rule:nonzero;fill:rgb(0.799561%,37.298584%,67.498779%);fill-opacity:1;" d="M 1589.828125 998.820313 L 1564.960938 998.820313 L 1564.960938 905.984375 L 1587.339844 905.984375 L 1587.339844 919.246094 C 1591.488281 912.617188 1594.800781 909.300781 1598.121094 906.8125 C 1601.429688 905.15625 1604.75 903.5 1608.890625 903.5 C 1614.691406 903.5 1619.671875 905.15625 1624.640625 908.472656 L 1617.179688 930.023438 C 1613.039063 927.535156 1608.890625 925.878906 1605.578125 925.878906 C 1602.261719 925.878906 1598.949219 926.707031 1596.460938 928.363281 C 1593.96875 930.023438 1592.308594 933.339844 1590.660156 938.3125 C 1589 943.285156 1589 953.234375 1589 968.980469 L 1589 998.820313 L 1589.828125 998.820313 "/>
<path style=" stroke:none;fill-rule:nonzero;fill:rgb(0.799561%,37.298584%,67.498779%);fill-opacity:1;" d="M 1685.980469 954.0625 C 1682.660156 954.890625 1677.691406 956.550781 1671.058594 958.207031 C 1664.429688 959.863281 1659.449219 960.691406 1657.800781 962.351563 C 1654.480469 964.839844 1652.820313 967.324219 1652.820313 970.640625 C 1652.820313 973.953125 1654.480469 977.269531 1656.96875 979.757813 C 1659.449219 982.242188 1662.769531 983.902344 1666.921875 983.902344 C 1671.058594 983.902344 1675.199219 982.242188 1679.351563 979.757813 C 1682.660156 977.269531 1684.320313 974.785156 1685.148438 971.46875 C 1685.980469 968.980469 1685.980469 965.664063 1685.980469 959.863281 Z M 1652.820313 934.167969 L 1630.441406 930.023438 C 1632.929688 920.90625 1637.070313 914.273438 1643.710938 910.128906 C 1649.511719 905.984375 1658.628906 903.5 1671.058594 903.5 C 1681.839844 903.5 1690.121094 905.15625 1695.101563 907.644531 C 1700.070313 910.128906 1704.21875 913.445313 1706.699219 917.589844 C 1709.191406 921.734375 1710.019531 929.195313 1710.019531 939.140625 L 1710.019531 967.324219 C 1710.019531 975.613281 1710.019531 981.414063 1710.851563 985.558594 C 1711.679688 989.703125 1713.328125 993.847656 1714.988281 997.992188 L 1690.949219 997.992188 C 1690.121094 996.335938 1689.300781 993.847656 1688.46875 990.53125 C 1688.46875 988.875 1687.640625 988.046875 1687.640625 988.046875 C 1683.488281 992.191406 1679.351563 995.507813 1674.371094 997.164063 C 1669.398438 998.820313 1664.429688 1000.480469 1659.449219 1000.480469 C 1650.339844 1000.480469 1642.050781 997.992188 1637.070313 993.019531 C 1631.269531 988.046875 1628.789063 981.414063 1628.789063 973.125 C 1628.789063 968.152344 1630.441406 963.179688 1632.929688 959.035156 C 1635.421875 954.890625 1638.730469 951.574219 1643.710938 949.917969 C 1647.851563 947.429688 1654.480469 945.773438 1662.769531 944.113281 C 1674.371094 941.628906 1681.839844 939.96875 1686.808594 938.3125 L 1686.808594 935.824219 C 1686.808594 930.851563 1685.980469 927.535156 1683.488281 925.878906 C 1681.011719 924.222656 1676.859375 922.5625 1670.230469 922.5625 C 1666.089844 922.5625 1662.769531 923.394531 1660.28125 925.050781 C 1656.140625 927.535156 1654.480469 930.023438 1652.820313 934.167969 "/>
<path style=" stroke:none;fill-rule:nonzero;fill:rgb(0.799561%,37.298584%,67.498779%);fill-opacity:1;" d="M 1732.398438 998.820313 L 1732.398438 871.171875 L 1757.269531 871.171875 L 1757.269531 998.820313 L 1732.398438 998.820313 "/>
<path style=" stroke:none;fill-rule:nonzero;fill:rgb(0.799561%,37.298584%,67.498779%);fill-opacity:1;" d="M 1831.859375 998.820313 L 1831.859375 871.171875 L 1919.730469 871.171875 L 1919.730469 892.722656 L 1858.390625 892.722656 L 1858.390625 922.5625 L 1911.441406 922.5625 L 1911.441406 944.113281 L 1858.390625 944.113281 L 1858.390625 997.992188 L 1831.859375 997.992188 L 1831.859375 998.820313 "/>
<path style=" stroke:none;fill-rule:nonzero;fill:rgb(0.799561%,37.298584%,67.498779%);fill-opacity:1;" d="M 1939.621094 998.820313 L 1939.621094 871.171875 L 1964.488281 871.171875 L 1964.488281 998.820313 L 1939.621094 998.820313 "/>
<path style=" stroke:none;fill-rule:nonzero;fill:rgb(0.799561%,37.298584%,67.498779%);fill-opacity:1;" d="M 2048.210938 998.820313 L 2048.210938 984.730469 C 2044.890625 989.703125 2040.75 993.847656 2034.949219 996.335938 C 2029.140625 998.820313 2023.339844 1000.480469 2017.539063 1000.480469 C 2011.738281 1000.480469 2005.941406 998.820313 2000.960938 996.335938 C 1995.988281 993.847656 1992.671875 989.703125 1990.191406 984.730469 C 1987.699219 979.757813 1986.871094 973.125 1986.871094 964.007813 L 1986.871094 905.15625 L 2011.738281 905.15625 L 2011.738281 947.429688 C 2011.738281 960.691406 2012.570313 968.152344 2013.390625 971.46875 C 2014.21875 974.785156 2015.878906 976.441406 2018.371094 978.101563 C 2020.851563 979.757813 2024.171875 980.585938 2027.488281 980.585938 C 2031.628906 980.585938 2035.769531 979.757813 2039.089844 977.269531 C 2042.410156 974.785156 2044.890625 972.296875 2045.71875 968.980469 C 2046.550781 965.664063 2047.378906 957.378906 2047.378906 944.113281 L 2047.378906 905.15625 L 2072.25 905.15625 L 2072.25 997.992188 L 2048.210938 997.992188 L 2048.210938 998.820313 "/>
<path style=" stroke:none;fill-rule:nonzero;fill:rgb(0.799561%,37.298584%,67.498779%);fill-opacity:1;" d="M 2093.800781 905.984375 L 2116.179688 905.984375 L 2116.179688 918.417969 C 2124.46875 908.472656 2133.589844 903.5 2145.191406 903.5 C 2150.988281 903.5 2155.960938 904.328125 2160.941406 906.8125 C 2165.078125 909.300781 2169.230469 912.617188 2171.710938 917.589844 C 2175.859375 912.617188 2180 909.300781 2184.980469 906.8125 C 2189.949219 904.328125 2194.921875 903.5 2199.898438 903.5 C 2206.53125 903.5 2212.328125 905.15625 2217.300781 907.644531 C 2222.28125 910.128906 2225.589844 914.273438 2228.078125 920.078125 C 2229.738281 924.222656 2230.570313 930.023438 2230.570313 939.140625 L 2230.570313 997.992188 L 2205.699219 997.992188 L 2205.699219 945.773438 C 2205.699219 936.652344 2204.871094 930.851563 2203.210938 928.363281 C 2200.730469 925.050781 2197.410156 923.394531 2192.441406 923.394531 C 2189.121094 923.394531 2185.808594 924.222656 2182.488281 926.707031 C 2179.171875 929.195313 2177.519531 931.683594 2175.859375 935.824219 C 2174.199219 939.96875 2174.199219 946.601563 2174.199219 954.890625 L 2174.199219 999.652344 L 2149.339844 999.652344 L 2149.339844 949.089844 C 2149.339844 939.96875 2148.511719 934.167969 2147.679688 931.683594 C 2146.851563 929.195313 2145.191406 927.535156 2143.53125 925.878906 C 2141.871094 924.222656 2139.390625 924.222656 2136.070313 924.222656 C 2131.929688 924.222656 2128.609375 925.050781 2126.121094 927.535156 C 2122.808594 929.195313 2121.148438 932.511719 2119.488281 936.652344 C 2117.839844 940.800781 2117.839844 946.601563 2117.839844 955.71875 L 2117.839844 1000.480469 L 2092.96875 1000.480469 L 2092.96875 905.984375 L 2093.800781 905.984375 "/>
<path style=" stroke:none;fill-rule:nonzero;fill:rgb(0.799561%,37.298584%,67.498779%);fill-opacity:1;" d="M 2252.949219 998.820313 L 2252.949219 905.984375 L 2277.808594 905.984375 L 2277.808594 998.820313 Z M 2252.949219 893.550781 L 2252.949219 871.171875 L 2277.808594 871.171875 L 2277.808594 893.550781 L 2252.949219 893.550781 "/>
<path style=" stroke:none;fill-rule:nonzero;fill:rgb(0.799561%,37.298584%,67.498779%);fill-opacity:1;" d="M 2384.738281 998.820313 L 2359.871094 998.820313 L 2359.871094 951.574219 C 2359.871094 941.628906 2359.039063 934.996094 2358.21875 932.511719 C 2357.390625 929.195313 2355.730469 927.535156 2353.238281 925.878906 C 2350.761719 924.222656 2348.269531 923.394531 2344.949219 923.394531 C 2340.808594 923.394531 2336.671875 924.222656 2333.351563 926.707031 C 2330.03125 929.195313 2327.550781 932.511719 2326.71875 935.824219 C 2325.058594 939.96875 2325.058594 946.601563 2325.058594 957.378906 L 2325.058594 999.652344 L 2300.191406 999.652344 L 2300.191406 906.8125 L 2322.570313 906.8125 L 2322.570313 920.078125 C 2330.859375 909.300781 2340.808594 904.328125 2353.238281 904.328125 C 2359.050781 904.328125 2363.191406 905.15625 2368.160156 907.644531 C 2373.140625 910.128906 2375.621094 911.789063 2378.109375 915.105469 C 2380.601563 918.417969 2382.261719 921.734375 2383.078125 925.050781 C 2383.910156 929.195313 2384.738281 934.167969 2384.738281 941.628906 L 2384.738281 998.820313 "/>
<path style=" stroke:none;fill-rule:nonzero;fill:rgb(0.799561%,37.298584%,67.498779%);fill-opacity:1;" d="M 2463.488281 944.941406 C 2463.488281 937.484375 2461.828125 932.511719 2457.691406 929.195313 C 2454.371094 925.878906 2450.21875 923.394531 2445.25 923.394531 C 2440.28125 923.394531 2435.300781 925.050781 2431.988281 929.195313 C 2428.671875 933.339844 2427.019531 938.3125 2427.019531 944.941406 Z M 2461.828125 968.980469 L 2485.871094 973.125 C 2482.550781 982.242188 2477.578125 988.875 2470.949219 993.847656 C 2464.320313 998.820313 2456.03125 1000.480469 2445.25 1000.480469 C 2429.5 1000.480469 2417.070313 995.507813 2409.609375 984.730469 C 2403.808594 976.441406 2400.488281 965.664063 2400.488281 953.234375 C 2400.488281 938.3125 2404.628906 925.878906 2412.101563 917.589844 C 2420.378906 909.300781 2430.328125 904.328125 2442.761719 904.328125 C 2456.851563 904.328125 2467.628906 908.472656 2475.089844 917.589844 C 2482.550781 926.707031 2486.699219 940.800781 2486.699219 959.035156 L 2426.191406 959.035156 C 2426.191406 966.496094 2428.671875 972.296875 2431.988281 975.613281 C 2436.128906 979.757813 2440.28125 981.414063 2446.078125 981.414063 C 2450.21875 981.414063 2453.539063 980.585938 2456.03125 978.101563 C 2458.511719 977.269531 2461 973.953125 2461.828125 968.980469 "/>
<path style=" stroke:none;fill-rule:nonzero;fill:rgb(0.799561%,37.298584%,67.498779%);fill-opacity:1;" d="M 2590.308594 998.820313 L 2565.441406 998.820313 L 2565.441406 951.574219 C 2565.441406 941.628906 2564.609375 934.996094 2563.78125 932.511719 C 2562.949219 929.195313 2561.300781 927.535156 2558.808594 925.878906 C 2556.320313 924.222656 2553.839844 923.394531 2550.519531 923.394531 C 2546.378906 923.394531 2542.230469 924.222656 2538.921875 926.707031 C 2535.601563 929.195313 2533.109375 932.511719 2532.28125 935.824219 C 2530.628906 939.96875 2530.628906 946.601563 2530.628906 957.378906 L 2530.628906 999.652344 L 2505.761719 999.652344 L 2505.761719 906.8125 L 2528.140625 906.8125 L 2528.140625 920.078125 C 2536.429688 909.300781 2546.378906 904.328125 2558.808594 904.328125 C 2564.609375 904.328125 2568.761719 905.15625 2573.730469 907.644531 C 2578.699219 910.128906 2581.191406 911.789063 2583.679688 915.105469 C 2586.160156 918.417969 2587.820313 921.734375 2588.648438 925.050781 C 2589.480469 929.195313 2590.308594 934.167969 2590.308594 941.628906 L 2590.308594 998.820313 "/>
<path style=" stroke:none;fill-rule:nonzero;fill:rgb(0.799561%,37.298584%,67.498779%);fill-opacity:1;" d="M 2605.230469 972.296875 L 2630.101563 968.152344 C 2630.929688 973.125 2633.410156 976.441406 2636.730469 978.929688 C 2640.039063 981.414063 2644.191406 982.242188 2649.988281 982.242188 C 2656.621094 982.242188 2660.769531 981.414063 2664.078125 978.929688 C 2666.570313 977.269531 2667.398438 974.785156 2667.398438 972.296875 C 2667.398438 970.640625 2666.570313 968.980469 2665.738281 967.324219 C 2664.910156 966.496094 2661.589844 964.839844 2657.449219 964.007813 C 2637.558594 959.863281 2625.121094 955.71875 2620.148438 952.402344 C 2612.691406 947.429688 2609.371094 940.800781 2609.371094 931.683594 C 2609.371094 923.394531 2612.691406 916.761719 2618.488281 911.789063 C 2625.121094 905.984375 2634.238281 903.496094 2647.5 903.496094 C 2659.941406 903.496094 2669.878906 905.15625 2675.691406 909.300781 C 2681.488281 913.445313 2686.460938 919.246094 2688.121094 927.535156 L 2664.910156 931.683594 C 2664.078125 928.363281 2662.421875 925.050781 2659.109375 923.394531 C 2656.621094 921.734375 2652.480469 920.90625 2647.5 920.90625 C 2640.871094 920.90625 2636.730469 921.734375 2633.410156 923.394531 C 2631.75 925.050781 2630.929688 926.707031 2630.929688 928.363281 C 2630.929688 930.023438 2631.75 931.683594 2633.410156 932.511719 C 2635.898438 934.167969 2643.359375 936.652344 2656.621094 939.140625 C 2669.878906 941.628906 2679 945.773438 2683.96875 949.917969 C 2688.949219 954.0625 2691.441406 960.691406 2691.441406 968.152344 C 2691.441406 976.441406 2688.121094 983.902344 2680.660156 989.703125 C 2673.199219 995.507813 2663.25 998.820313 2649.160156 998.820313 C 2636.730469 998.820313 2626.78125 996.335938 2619.320313 991.363281 C 2612.691406 988.046875 2607.71875 981.414063 2605.230469 972.296875 "/>
<g clip-path="url(#clip5)" clip-rule="nonzero">
<path style=" stroke:none;fill-rule:nonzero;fill:rgb(0.799561%,37.298584%,67.498779%);fill-opacity:1;" d="M 2766.859375 944.941406 C 2766.859375 937.484375 2765.210938 932.511719 2761.058594 929.195313 C 2757.75 925.878906 2753.601563 923.394531 2748.628906 923.394531 C 2743.660156 923.394531 2738.679688 925.050781 2735.359375 929.195313 C 2732.050781 933.339844 2730.390625 938.3125 2730.390625 944.941406 Z M 2765.210938 968.980469 L 2789.25 973.125 C 2785.929688 982.242188 2780.949219 988.875 2774.320313 993.847656 C 2767.691406 998.820313 2759.398438 1000.480469 2748.628906 1000.480469 C 2732.878906 1000.480469 2720.449219 995.507813 2712.988281 984.730469 C 2707.179688 976.441406 2703.871094 965.664063 2703.871094 953.234375 C 2703.871094 938.3125 2708.011719 925.878906 2715.46875 917.589844 C 2723.761719 909.300781 2733.710938 904.328125 2746.140625 904.328125 C 2760.230469 904.328125 2771.011719 908.472656 2778.46875 917.589844 C 2785.929688 926.707031 2790.070313 940.800781 2790.070313 959.035156 L 2728.738281 959.035156 C 2728.738281 966.496094 2731.21875 972.296875 2734.539063 975.613281 C 2738.679688 979.757813 2742.828125 981.414063 2748.628906 981.414063 C 2752.769531 981.414063 2755.261719 980.585938 2758.578125 978.101563 C 2761.890625 977.269531 2764.378906 973.953125 2765.210938 968.980469 "/>
</g>
</g>
</svg>
